<svg version="1.1" xmlns="http://www.w3.org/2000/svg" xmlns:xlink="http://www.w3.org/1999/xlink">
  <symbol viewBox="0 0 512 512" id="arrow-left">
    <title>arrow-left</title>
    <path d="M92.9,249.7l1,1.1l-1,1l249.8,260.7l75.9-79.2L245.7,252.9L418.6,81.8L344.7,0.5L92.9,249.7z" /> </symbol>
  <symbol viewBox="0 0 512 512" id="arrow-right">
    <title>arrow-right</title>
    <path d="M166.8,0.5L92.9,81.8l172.9,171.1L92.9,433.3l75.9,79.2l249.8-260.7l-1-1l1-1.1L166.8,0.5z" /> </symbol>
  <symbol viewBox="0 0 96 96" id="play">
    <title>play</title>
    <path d="M72,0H24C10.7,0,0,10.7,0,24v48c0,13.3,10.7,24,24,24h48c13.3,0,24-10.7,24-24V24C96,10.7,85.3,0,72,0z

	 M69.9,51.5L35.6,71.6c-0.5,0.3-1.1,0.4-1.7,0.4c-0.7,0-1.4-0.2-2-0.6c-1.1-0.7-1.8-2-1.8-3.3V27.9c0-1.4,0.7-2.6,1.8-3.3

	c0.6-0.4,1.3-0.6,2-0.6c0.6,0,1.2,0.1,1.7,0.4l34.2,20.1c1.3,0.7,2.1,2,2.1,3.5C72,49.5,71.2,50.8,69.9,51.5z" /> </symbol>
</svg>